<svg xmlns="http://www.w3.org/2000/svg"  viewBox="0 0 32 32" width="32px" height="32px"><path d="M 9 3 L 9 14 L 9.15625 14.25 L 10.40625 16.3125 L 10.375 16.3125 L 12 19 L 13.625 16.3125 L 13.59375 16.3125 L 14.84375 14.25 L 15 14 L 15 8 L 24 8 C 24.550781 8 25 8.449219 25 9 L 25 19 L 12 19 L 13.96875 22.28125 L 13.71875 22.46875 L 11 24.71875 L 11 22 L 8 22 C 7.449219 22 7 21.550781 7 21 L 7 9 C 7 8.449219 7.449219 8 8 8 L 8 6 C 6.34375 6 5 7.34375 5 9 L 5 21 C 5 22.65625 6.34375 24 8 24 L 9 24 L 9 29 L 15 24 L 24 24 C 25.65625 24 27 22.65625 27 21 L 27 9 C 27 7.34375 25.65625 6 24 6 L 15 6 L 15 3 Z M 11 5 L 13 5 L 13 11.28125 L 12.3125 11.0625 L 12 10.9375 L 11.6875 11.0625 L 11 11.28125 Z M 12 13.03125 L 13 13.375 L 13 13.46875 L 12 15.125 L 11 13.46875 L 11 13.375 Z"/></svg>